<?xml version="1.0" encoding="utf-8"?>
<!-- Generator: Adobe Illustrator 22.0.1, SVG Export Plug-In . SVG Version: 6.00 Build 0)  -->
<svg version="1.1" id="Camada_1" xmlns="http://www.w3.org/2000/svg" xmlns:xlink="http://www.w3.org/1999/xlink" x="0px" y="0px"
	 viewBox="0 0 162.1 70.1" style="enable-background:new 0 0 162.1 70.1;" xml:space="preserve">
<style type="text/css">
	.st0{fill:#E9EEF2;}
	.st1{fill:#FF9000;}
	.st2{fill:#08083A;}
	.st3{fill:#FF017B;}
	.st4{fill:#17D7E6;}
	.st5{enable-background:new    ;}
</style>
<g id="Group_4" transform="translate(-107.572 -184.593)">
	<path id="Path_1" class="st0" d="M250.3,241.2H144.9c-10.7,0-19.4-8.7-19.4-19.4c0-3.2,0.8-6.4,2.3-9.2l0,0
		c3.4-6.3,9.9-10.2,17-10.2h105.4c10.7,0,19.4,8.7,19.4,19.4c0,3.2-0.8,6.4-2.3,9.2l0,0C263.9,237.3,257.4,241.2,250.3,241.2z"/>
	<g id="Group_1" transform="translate(220.312 212.441)">
		<path id="Path_2" class="st1" d="M12.9,3.7c-0.4,1.6-2,2.7-3.6,2.3S6.6,4,6.9,2.4c0.4-1.6,2-2.7,3.6-2.3c0,0,0,0,0,0
			C12.2,0.4,13.2,2.1,12.9,3.7C12.9,3.7,12.9,3.7,12.9,3.7z"/>
		<path id="Path_3" class="st2" d="M3.7,4.4C5.3,4.8,6.4,6.4,6,8c-0.4,1.6-2,2.7-3.6,2.3c-1.6-0.4-2.7-2-2.3-3.6c0,0,0,0,0,0
			C0.4,5.1,2.1,4,3.7,4.4z"/>
		<path id="Path_4" class="st3" d="M4.4,13.6c0.4-1.6,2-2.7,3.6-2.3s2.7,2,2.3,3.6s-2,2.7-3.6,2.3c0,0,0,0,0,0
			C5.1,16.8,4,15.2,4.4,13.6z"/>
		<path id="Path_5" class="st4" d="M13.6,12.9c-1.6-0.4-2.7-2-2.3-3.6c0.4-1.6,2-2.7,3.6-2.3c1.6,0.4,2.7,2,2.3,3.6c0,0,0,0,0,0
			C16.8,12.2,15.2,13.2,13.6,12.9C13.6,12.9,13.6,12.9,13.6,12.9z"/>
	</g>
	<g class="st5">
		<path class="st2" d="M187,245.5h-6.9l-1.9,3.1h-4.8l10.3-16.1h4.5l3.9,16.1h-4.5L187,245.5z M186.3,242.2l-1.1-5.2l-3.1,5.2H186.3
			z"/>
		<path class="st2" d="M215.4,232.5l-3.2,16.1H208l1.7-8.5l-5.4,6.9h-2l-2.9-6.9l-1.7,8.5h-4.2l3.2-16.1h3.7l3.8,9.3l7.3-9.3H215.4z
			"/>
		<path class="st2" d="M218.7,232.5h4.6l-3.2,16.1h-4.6L218.7,232.5z"/>
		<path class="st2" d="M241.8,232.5l-3.2,16.1h-3.7l-5.3-8.8l-1.8,8.8h-4.5l3.2-16.1h3.7l5.3,8.8l1.7-8.8H241.8z"/>
		<path class="st2" d="M254.3,240.3h4l-1.4,6.8c-0.8,0.6-1.8,1.1-2.9,1.4c-1.1,0.3-2.3,0.5-3.5,0.5c-1.6,0-3-0.3-4.3-0.9
			s-2.2-1.4-2.8-2.5s-1-2.3-1-3.7c0-1.9,0.4-3.5,1.3-5c0.9-1.5,2.1-2.6,3.6-3.4s3.3-1.2,5.3-1.2c3.2,0,5.5,1,7,3l-3.3,2.6
			c-0.5-0.6-1.1-1.1-1.7-1.4c-0.6-0.3-1.4-0.4-2.2-0.4c-1.1,0-2,0.2-2.9,0.7c-0.8,0.5-1.5,1.1-1.9,2c-0.4,0.8-0.7,1.8-0.7,2.9
			c0,1.1,0.4,2,1.1,2.6c0.7,0.7,1.7,1,3,1c0.8,0,1.5-0.1,2.1-0.4L254.3,240.3z"/>
	</g>
	<g id="Group_3" transform="translate(107.572 184.593)">
		<g id="Group_2">
			<path id="Path_6" class="st2" d="M59.5,46.4l-6.2,10.8c-0.7,1.3-2.1,2-3.5,2H26.6c-1.4,0-2.8-0.8-3.5-2L11.5,37.1
				c-0.7-1.3-0.7-2.8,0-4.1l12-20.8c0.5-0.8,1.3-1.3,2.2-1.3h24.9c0.9,0,1.8,0.5,2.2,1.3l7.4,12.9h12.6l-2.1-3.6l-8.1-14
				C60,2.9,55.1,0,49.7,0H26.6c-5.3,0-10.3,2.9-13,7.5L2,27.6c-2.7,4.6-2.7,10.3,0,15l11.6,20.1c2.7,4.6,7.6,7.5,13,7.5h23.2
				c5.4,0,10.3-2.9,13-7.5l8.1-14l1.3-2.2L59.5,46.4z"/>
		</g>
	</g>
	<path id="Path_7" class="st3" d="M193,225.3h-42.5c-2.5,0-4.6-2-4.6-4.6c0-0.8,0.2-1.5,0.5-2.2l0,0c0.8-1.5,2.3-2.4,4-2.4H193
		c2.5,0,4.6,2,4.6,4.6c0,0.8-0.2,1.5-0.5,2.2l0,0C196.3,224.4,194.7,225.3,193,225.3z"/>
</g>
</svg>
